<svg version="1.1" id="Layer_1" xmlns="http://www.w3.org/2000/svg" xmlns:xlink="http://www.w3.org/1999/xlink" x="0px" y="0px"
	 width="100%" viewBox="0 0 1600 985" enable-background="new 0 0 1600 985" xml:space="preserve">
<path fill="#000000" opacity="1.000000" stroke="none" 
	d="
M1601.000000,657.000000 
	C1601.000000,766.646484 1601.000000,876.292908 1601.000000,985.969727 
	C1067.785156,985.969727 534.570312,985.969727 1.000000,985.969727 
	C1.000000,876.638916 1.000000,767.277405 1.420681,657.660889 
	C3.007370,657.424866 4.173378,657.460266 5.339387,657.460266 
	C535.590332,657.460266 1065.841187,657.458252 1596.092163,657.436768 
	C1597.728149,657.436707 1599.364014,657.151855 1601.000000,657.000000 
z"/>
<path fill="#007C39" opacity="1.000000" stroke="none" 
	d="
M1.000000,329.000000 
	C1.000000,219.686829 1.000000,110.373657 1.000000,1.030244 
	C534.214783,1.030244 1067.429565,1.030244 1601.000000,1.030244 
	C1601.000000,110.027779 1601.000000,219.055939 1600.541992,328.546936 
	C1067.056030,329.006531 534.028015,329.003265 1.000000,329.000000 
z"/>
<path fill="#FFFFFF" opacity="1.000000" stroke="none" 
	d="
M1.000000,329.457947 
	C534.028015,329.003265 1067.056030,329.006531 1600.541992,329.004883 
	C1601.000000,438.028046 1601.000000,547.056091 1601.000000,656.542053 
	C1599.364014,657.151855 1597.728149,657.436707 1596.092163,657.436768 
	C1065.841187,657.458252 535.590332,657.460266 5.339387,657.460266 
	C4.173378,657.460266 3.007370,657.424866 1.420681,657.203003 
	C1.000000,547.971985 1.000000,438.943939 1.000000,329.457947 
M875.545959,611.756470 
	C875.900879,611.671509 876.255737,611.586609 876.610657,611.501648 
	C876.413269,611.326660 876.215942,611.151733 876.177795,610.197144 
	C867.329712,582.155762 858.562988,554.088135 849.534119,526.105042 
	C848.357178,522.457275 848.895508,520.589783 852.005920,518.331604 
	C867.356995,507.186523 882.510559,495.769379 897.725281,484.436676 
	C906.052185,478.234344 914.361877,472.009064 922.679321,465.794159 
	C920.586914,464.721893 918.836548,464.721466 917.086182,464.721985 
	C889.602722,464.730225 862.119080,464.696808 834.636047,464.805817 
	C831.590027,464.817902 829.909241,464.253510 828.891113,460.961243 
	C821.724365,437.786469 814.328674,414.682404 806.981689,391.563507 
	C805.208923,385.985168 803.344604,380.435913 801.066162,373.480499 
	C799.984436,376.505371 799.397888,378.000153 798.911621,379.526825 
	C790.341553,406.433319 781.699829,433.317688 773.324463,460.284760 
	C772.223022,463.831177 770.717163,464.850677 767.110657,464.829407 
	C739.961243,464.669250 712.810486,464.733276 685.660156,464.727295 
	C683.618103,464.726868 681.575989,464.727203 679.533936,464.727203 
	C681.489746,467.408508 683.549438,469.031708 685.652710,470.596466 
	C707.282227,486.688446 728.878845,502.825256 750.605103,518.785645 
	C753.247253,520.726624 753.694458,522.469482 752.731995,525.405396 
	C747.815613,540.402405 742.974731,555.425354 738.262878,570.487854 
	C734.053589,583.943665 730.046692,597.462830 725.555603,611.020264 
	C725.523193,611.293579 725.490845,611.566956 725.458435,611.840332 
	C725.808472,611.718506 726.158508,611.596741 727.142761,611.241394 
	C750.509827,593.901489 773.908386,576.603638 797.200378,559.163513 
	C799.835327,557.190613 801.589355,556.593994 804.482300,558.898987 
	C811.892090,564.802795 819.615479,570.314575 827.245178,575.940247 
	C843.294312,587.773865 859.363770,599.579895 875.545959,611.756470 
M1276.130493,443.311768 
	C1268.838989,420.318176 1261.547485,397.324615 1254.255981,374.331024 
	C1253.927124,374.406525 1253.598267,374.482025 1253.269287,374.557526 
	C1243.723511,404.599487 1234.177856,434.641479 1224.534180,464.991364 
	C1193.570190,464.991364 1163.033447,464.991364 1131.417969,464.991364 
	C1133.537354,466.724915 1134.737305,467.787537 1136.017944,468.741730 
	C1158.313354,485.353912 1180.575439,502.011505 1202.974365,518.483154 
	C1205.911255,520.642883 1206.427612,522.412842 1205.277588,525.886841 
	C1199.847656,542.292603 1194.784180,558.819641 1189.578491,575.299744 
	C1185.747925,587.426086 1181.899170,599.546692 1177.711060,612.766663 
	C1180.363770,610.909119 1182.014648,609.812256 1183.603394,608.631653 
	C1205.920288,592.046204 1228.256836,575.486633 1250.498535,558.800720 
	C1252.863525,557.026489 1254.421265,556.720764 1256.935791,558.627502 
	C1271.392578,569.590149 1285.993286,580.363342 1300.553101,591.189941 
	C1309.853882,598.105957 1319.168457,605.003296 1328.476929,611.908997 
	C1328.788818,611.703247 1329.100830,611.497437 1329.412720,611.291687 
	C1319.916992,581.283691 1310.421265,551.275757 1300.950195,521.345825 
	C1326.085815,502.618988 1350.798950,484.206879 1375.512207,465.794739 
	C1372.731201,464.717224 1370.432373,464.716858 1368.133423,464.717285 
	C1341.305542,464.722473 1314.477295,464.648468 1287.650513,464.825745 
	C1283.979858,464.850006 1282.366333,463.805817 1281.469971,460.234497 
	C1280.097168,454.765167 1278.109497,449.450226 1276.130493,443.311768 
M331.401886,568.893311 
	C335.808472,565.611755 340.361664,562.505432 344.568726,558.985413 
	C347.258362,556.735046 349.082275,556.911316 351.854309,559.016724 
	C368.030609,571.302795 384.369598,583.374817 400.673309,595.492798 
	C408.168579,601.063721 415.708527,606.574463 424.148499,612.790344 
	C423.388214,610.117676 423.020844,608.690918 422.577576,607.288147 
	C413.961914,580.022339 405.388672,552.742859 396.641388,525.519287 
	C395.687408,522.550354 395.844147,520.813354 398.527557,518.841003 
	C419.190308,503.653015 439.740112,488.311188 460.307587,472.993805 
	C463.513092,470.606506 466.630585,468.101135 469.788788,465.650330 
	C469.630981,465.325775 469.473145,465.001251 469.315338,464.676697 
	C438.695526,464.676697 408.075714,464.676697 377.372345,464.676697 
	C367.745178,434.387573 358.226196,404.438873 348.367157,373.420258 
	C347.510406,375.594849 347.036682,376.617767 346.697784,377.683624 
	C337.983032,405.092438 329.213989,432.484375 320.662231,459.944031 
	C319.540802,463.544922 318.055847,464.829346 314.138885,464.800781 
	C287.307343,464.605133 260.473663,464.705322 233.640656,464.710114 
	C231.392792,464.710541 229.144943,464.710175 225.503128,464.710175 
	C227.881424,466.684204 229.056412,467.754150 230.324997,468.698364 
	C252.765778,485.401215 275.180786,502.139313 297.718964,518.709900 
	C300.286682,520.597778 300.937317,522.133789 299.944946,525.207947 
	C291.211761,552.260376 282.644196,579.366394 274.048828,606.463196 
	C273.530029,608.098694 273.191681,609.791321 272.429291,612.799194 
	C292.669250,597.713928 311.738586,583.501099 331.401886,568.893311 
z"/>
<path fill="#EE0223" opacity="1.000000" stroke="none" 
	d="
M1276.256592,443.690765 
	C1278.109497,449.450226 1280.097168,454.765167 1281.469971,460.234497 
	C1282.366333,463.805817 1283.979858,464.850006 1287.650513,464.825745 
	C1314.477295,464.648468 1341.305542,464.722473 1368.133423,464.717285 
	C1370.432373,464.716858 1372.731201,464.717224 1375.512207,465.794739 
	C1350.798950,484.206879 1326.085815,502.618988 1300.950195,521.345825 
	C1310.421265,551.275757 1319.916992,581.283691 1329.412720,611.291687 
	C1329.100830,611.497437 1328.788818,611.703247 1328.476929,611.908997 
	C1319.168457,605.003296 1309.853882,598.105957 1300.553101,591.189941 
	C1285.993286,580.363342 1271.392578,569.590149 1256.935791,558.627502 
	C1254.421265,556.720764 1252.863525,557.026489 1250.498535,558.800720 
	C1228.256836,575.486633 1205.920288,592.046204 1183.603394,608.631653 
	C1182.014648,609.812256 1180.363770,610.909119 1177.711060,612.766663 
	C1181.899170,599.546692 1185.747925,587.426086 1189.578491,575.299744 
	C1194.784180,558.819641 1199.847656,542.292603 1205.277588,525.886841 
	C1206.427612,522.412842 1205.911255,520.642883 1202.974365,518.483154 
	C1180.575439,502.011505 1158.313354,485.353912 1136.017944,468.741730 
	C1134.737305,467.787537 1133.537354,466.724915 1131.417969,464.991364 
	C1163.033447,464.991364 1193.570190,464.991364 1224.534180,464.991364 
	C1234.177856,434.641479 1243.723511,404.599487 1253.269287,374.557526 
	C1253.598267,374.482025 1253.927124,374.406525 1254.255981,374.331024 
	C1261.547485,397.324615 1268.838989,420.318176 1276.256592,443.690765 
z"/>
<path fill="#EE0323" opacity="1.000000" stroke="none" 
	d="
M331.104919,569.090820 
	C311.738586,583.501099 292.669250,597.713928 272.429291,612.799194 
	C273.191681,609.791321 273.530029,608.098694 274.048828,606.463196 
	C282.644196,579.366394 291.211761,552.260376 299.944946,525.207947 
	C300.937317,522.133789 300.286682,520.597778 297.718964,518.709900 
	C275.180786,502.139313 252.765778,485.401215 230.324997,468.698364 
	C229.056412,467.754150 227.881424,466.684204 225.503128,464.710175 
	C229.144943,464.710175 231.392792,464.710541 233.640656,464.710114 
	C260.473663,464.705322 287.307343,464.605133 314.138885,464.800781 
	C318.055847,464.829346 319.540802,463.544922 320.662231,459.944031 
	C329.213989,432.484375 337.983032,405.092438 346.697784,377.683624 
	C347.036682,376.617767 347.510406,375.594849 348.367157,373.420258 
	C358.226196,404.438873 367.745178,434.387573 377.372345,464.676697 
	C408.075714,464.676697 438.695526,464.676697 469.315338,464.676697 
	C469.473145,465.001251 469.630981,465.325775 469.788788,465.650330 
	C466.630585,468.101135 463.513092,470.606506 460.307587,472.993805 
	C439.740112,488.311188 419.190308,503.653015 398.527557,518.841003 
	C395.844147,520.813354 395.687408,522.550354 396.641388,525.519287 
	C405.388672,552.742859 413.961914,580.022339 422.577576,607.288147 
	C423.020844,608.690918 423.388214,610.117676 424.148499,612.790344 
	C415.708527,606.574463 408.168579,601.063721 400.673309,595.492798 
	C384.369598,583.374817 368.030609,571.302795 351.854309,559.016724 
	C349.082275,556.911316 347.258362,556.735046 344.568726,558.985413 
	C340.361664,562.505432 335.808472,565.611755 331.104919,569.090820 
z"/>
<path fill="#EE0323" opacity="1.000000" stroke="none" 
	d="
M875.424927,611.397339 
	C859.363770,599.579895 843.294312,587.773865 827.245178,575.940247 
	C819.615479,570.314575 811.892090,564.802795 804.482300,558.898987 
	C801.589355,556.593994 799.835327,557.190613 797.200378,559.163513 
	C773.908386,576.603638 750.509827,593.901489 726.692871,611.220703 
	C726.242981,611.200012 725.950562,610.954041 725.950562,610.954041 
	C730.046692,597.462830 734.053589,583.943665 738.262878,570.487854 
	C742.974731,555.425354 747.815613,540.402405 752.731995,525.405396 
	C753.694458,522.469482 753.247253,520.726624 750.605103,518.785645 
	C728.878845,502.825256 707.282227,486.688446 685.652710,470.596466 
	C683.549438,469.031708 681.489746,467.408508 679.533936,464.727203 
	C681.575989,464.727203 683.618103,464.726868 685.660156,464.727295 
	C712.810486,464.733276 739.961243,464.669250 767.110657,464.829407 
	C770.717163,464.850677 772.223022,463.831177 773.324463,460.284760 
	C781.699829,433.317688 790.341553,406.433319 798.911621,379.526825 
	C799.397888,378.000153 799.984436,376.505371 801.066162,373.480499 
	C803.344604,380.435913 805.208923,385.985168 806.981689,391.563507 
	C814.328674,414.682404 821.724365,437.786469 828.891113,460.961243 
	C829.909241,464.253510 831.590027,464.817902 834.636047,464.805817 
	C862.119080,464.696808 889.602722,464.730225 917.086182,464.721985 
	C918.836548,464.721466 920.586914,464.721893 922.679321,465.794159 
	C914.361877,472.009064 906.052185,478.234344 897.725281,484.436676 
	C882.510559,495.769379 867.356995,507.186523 852.005920,518.331604 
	C848.895508,520.589783 848.357178,522.457275 849.534119,526.105042 
	C858.562988,554.088135 867.329712,582.155762 875.947998,610.689575 
	C875.718140,611.181946 875.424927,611.397278 875.424927,611.397339 
z"/>
<path fill="#EE0323" opacity="1.000000" stroke="none" 
	d="
M726.375732,611.337524 
	C726.158508,611.596741 725.808472,611.718506 725.458435,611.840332 
	C725.490845,611.566956 725.523193,611.293579 725.753052,610.987183 
	C725.950562,610.954041 726.242981,611.200012 726.375732,611.337524 
z"/>
<path fill="#EE0323" opacity="1.000000" stroke="none" 
	d="
M875.868347,611.079346 
	C876.215942,611.151733 876.413269,611.326660 876.610657,611.501648 
	C876.255737,611.586609 875.900879,611.671509 875.485474,611.576904 
	C875.424927,611.397278 875.718140,611.181946 875.868347,611.079346 
z"/>
</svg>